<svg width="50" height="25" viewBox="0 0 50 25" fill="none" xmlns="http://www.w3.org/2000/svg">
<rect x="0.5" y="0.5" width="49" height="24" rx="2.5" fill="white"/>
<rect x="0.5" y="0.5" width="49" height="24" rx="2.5" stroke="#F8F8F8"/>
<g clip-path="url(#clip0_4052_1187)">
<path d="M10.0491 10.6983C10.0491 9.4205 8.9582 8.38477 7.52454 8.38477C6.09088 8.38477 5 9.4205 5 10.6983V15.3253H5.63119C5.63119 14.367 6.47901 13.5902 7.52454 13.5902C8.57008 13.5902 9.4179 14.3671 9.4179 15.3253H10.0491V10.6983Z" fill="#199BFA"/>
<path fill-rule="evenodd" clip-rule="evenodd" d="M13.5639 8L11.9429 15.3255H13.3823L13.6955 13.7171H15.4842L15.7973 15.3255H17.2786L15.6574 8H13.5639ZM13.8966 12.7129L14.5897 9.17812L15.2828 12.7129H13.8966Z" fill="#282828"/>
<path d="M20.484 13.6449C20.484 14.1674 20.1596 14.4236 19.7236 14.4236C19.2875 14.4236 19.0976 14.1983 19.0976 13.7166V9.9668H17.7112V13.8805C17.7112 14.9255 18.2925 15.4172 19.1423 15.4172C19.8354 15.4172 20.2602 15.0996 20.484 14.659V15.3249H21.8703V9.9668H20.484V13.6449Z" fill="#282828"/>
<path d="M22.6934 8.89062H24.0795V9.96653H25.0298V10.8989H24.0795V13.8288C24.0795 14.1977 24.2472 14.3616 24.605 14.3616C24.784 14.3616 24.9516 14.3411 25.0298 14.3103V15.2836C24.9181 15.3246 24.6499 15.3656 24.3368 15.3656C23.1853 15.3656 22.6934 14.8943 22.6934 13.9312V8.89062Z" fill="#282828"/>
<path fill-rule="evenodd" clip-rule="evenodd" d="M27.6546 9.875C26.3802 9.875 25.4634 10.5613 25.4634 11.883V13.43C25.4634 14.7313 26.3802 15.4176 27.6434 15.4176C28.9067 15.4176 29.8682 14.7313 29.8682 13.4096V11.8626C29.8682 10.5511 28.9402 9.875 27.6546 9.875ZM28.4708 13.461C28.4708 14.1166 28.2026 14.4445 27.6546 14.4445C27.1066 14.4445 26.8496 14.1166 26.8496 13.461V11.8218C26.8496 11.1559 27.1291 10.8382 27.6546 10.8382C28.18 10.8382 28.4708 11.1559 28.4708 11.832V13.461Z" fill="#282828"/>
<path fill-rule="evenodd" clip-rule="evenodd" d="M31.9473 10.623C32.1822 10.2132 32.6407 9.875 33.3114 9.875C34.3065 9.875 34.966 10.4895 34.966 11.7702V13.5017C34.966 14.7927 34.273 15.4176 33.2555 15.4176C32.6071 15.4176 32.1486 15.1206 31.9473 14.7108V17.0001H30.561V9.96737H31.9473V10.623ZM32.7858 14.4547C33.3001 14.4547 33.5686 14.1576 33.5686 13.5122V11.7706C33.5686 11.1047 33.2778 10.8485 32.7858 10.8485C32.2491 10.8485 31.936 11.1866 31.936 11.8525V13.4405C31.936 14.1064 32.2155 14.4547 32.7858 14.4547Z" fill="#282828"/>
<path fill-rule="evenodd" clip-rule="evenodd" d="M38.5901 10.582C38.3778 10.1517 37.9862 9.875 37.3378 9.875C36.3539 9.875 35.616 10.4999 35.616 11.8011V13.5019C35.616 14.8031 36.309 15.4178 37.2706 15.4178C37.9414 15.4178 38.3662 15.0797 38.5901 14.6493V15.3254H39.9765V9.96717H38.5901V10.582ZM38.6011 13.4302C38.6011 14.0961 38.288 14.4445 37.7514 14.4445C37.2819 14.4445 37.0137 14.178 37.0137 13.5224V11.7806C37.0137 11.1148 37.2819 10.8278 37.7852 10.8278C38.3219 10.8278 38.6014 11.1762 38.6014 11.8626L38.6011 13.4302Z" fill="#282828"/>
<path d="M42.7585 13.2248L43.6419 9.9668H45.0001L42.7542 16.9997H41.3631L42.0544 14.8949L40.366 9.9668H41.8419L42.7585 13.2248Z" fill="#282828"/>
</g>
<defs>
<clipPath id="clip0_4052_1187">
<rect width="40" height="9" fill="white" transform="translate(5 8)"/>
</clipPath>
</defs>
</svg>
