<svg width="100%" height="100%" viewBox="0 0 193 45" version="1.1" xmlns="http://www.w3.org/2000/svg" xmlns:xlink="http://www.w3.org/1999/xlink" xml:space="preserve" xmlns:serif="http://www.serif.com/" style="fill-rule:evenodd;clip-rule:evenodd;stroke-linejoin:round;stroke-miterlimit:2;"><g><path d="M17.582,30.722c2.996,4.912 8.49,8.207 14.604,8.207c9.034,-0 14.007,-7.797 14.007,-7.797l0.64,2.077c-4.182,5.44 -11.654,8.717 -20.014,8.717c-9.625,-0 -17.925,-4.592 -21.745,-11.213c-1.437,-2.493 -2.24,-5.279 -2.24,-8.213c0,-10.728 10.738,-19.425 23.985,-19.425c9.36,-0 16.896,4.01 20.852,9.82l-15.705,9.404l8.963,-13.763c-2.564,-1.613 -5.71,-3.123 -8.963,-3.123c-9.195,-0 -16.768,7.673 -16.768,16.868c0,3.081 0.874,5.976 2.384,8.441Z" style="fill:#000000;"/><path d="M59.635,30.717c-0.047,0.309 -0.071,0.626 -0.071,0.948c0,3.49 2.83,6.32 6.321,6.32c3.49,-0 6.32,-2.83 6.32,-6.32c0,-0.322 -0.024,-0.639 -0.071,-0.952c-0.457,-3.037 -3.081,-5.368 -6.249,-5.368c-3.169,-0 -5.793,2.331 -6.25,5.372Zm23.452,-0.004l3.141,10.581l-11.018,-0l-2.167,-7.245c-1.451,4.175 -6.347,7.245 -12.163,7.245c-6.96,-0 -12.601,-4.395 -12.601,-9.818c0,-0.253 0.013,-0.505 0.037,-0.763c0.495,-5.061 5.931,-9.054 12.564,-9.054c3.764,-0 7.143,1.286 9.452,3.326l-3.001,-10.035l-12.647,-0c0,-0 2.104,-1.262 11.435,-4.657c9.331,-3.395 12.288,4.657 12.288,4.657l4.68,15.763Z" style="fill:#000000;"/><path d="M118.317,14.991l0,26.303l-11.338,-0l0,-23.247c0,-1.71 -1.387,-3.097 -3.098,-3.097c-1.314,-0 -2.437,0.818 -2.887,1.973l0,24.371l-11.127,-0l0,-26.344l-6.49,-0c0,-0 9.028,-5.47 12.159,-5.47c2.967,-0 5.162,2.28 5.437,5.183c4.367,-2.355 8.696,-5.183 11.675,-5.183c3.078,-0 5.583,2.453 5.669,5.511Z" style="fill:#000000;"/><path d="M135.783,30.713l1.577,5.216c0.031,2.235 1.868,4.023 4.122,4.023c2.305,-0 4.173,-1.868 4.173,-4.173c0,-0.162 -0.009,-0.323 -0.027,-0.481l-1.342,-4.585l-4.71,-16.098c-0.232,-2.086 -2.001,-3.708 -4.148,-3.708c-2.126,-0 -4.153,1.987 -4.412,4.043l4.767,15.763Zm18.043,0.003c-2.147,6.51 -8.28,11.21 -15.51,11.21c-7.231,-0 -13.363,-4.7 -15.511,-11.213c-0.531,-1.607 -0.818,-3.328 -0.818,-5.116c0,-9.017 7.311,-16.327 16.329,-16.327c9.018,-0 16.329,7.31 16.329,16.327c0,1.788 -0.288,3.509 -0.819,5.119Z" style="fill:#000000;"/><path d="M172.599,16.923l0,24.371l-11.128,-0l0,-26.344l-6.223,-0c0,-0 8.761,-5.47 11.892,-5.47c2.967,-0 5.163,2.28 5.437,5.183c4.367,-2.355 8.696,-5.183 11.675,-5.183c3.079,-0 5.584,2.453 5.669,5.511l0,26.303l-11.338,-0l0,-23.247c0,-1.71 -1.386,-3.097 -3.098,-3.097c-1.314,-0 -2.436,0.818 -2.886,1.973Z" style="fill:#000000;"/></g></svg>