<svg width="123" height="14" viewBox="0 0 123 14" fill="none" xmlns="http://www.w3.org/2000/svg">
<path fill-rule="evenodd" clip-rule="evenodd" d="M34.6913 13.7695C34.7814 13.9731 35.4928 13.3316 35.6406 13.8886V13.6507C35.713 13.6441 35.7814 13.6327 35.7593 13.5316C35.431 13.6382 34.6453 13.2879 34.6913 13.7695ZM32.9119 13.4132C33.2247 13.7636 33.8567 12.9371 33.6236 13.1757C33.177 13.1147 33.0832 13.0257 32.9119 13.4132ZM17.3659 13.2941C17.8839 13.2584 18.3505 13.1713 18.6718 12.9393C18.0328 12.8537 17.6854 13.0606 17.3659 13.2941ZM26.5034 12.2268C26.9189 12.2467 27.263 12.1948 27.4527 11.9893C27.038 11.9691 26.6935 12.0202 26.5034 12.2268ZM113.605 6.17461C113.495 5.96763 113.609 5.53748 113.249 5.58123C113.251 5.89484 113.138 6.32461 113.605 6.17461ZM75.6321 2.25844C76.0417 2.07609 76.7133 2.15366 77.2928 2.13969C77.2545 1.86984 75.9494 1.86395 75.6321 2.25844ZM17.485 7.59814C17.117 7.55844 16.9178 7.87314 16.6542 7.59814C16.5972 8.18748 17.3909 7.87388 17.485 7.59814ZM32.081 13.6507C32.1152 13.4776 33.0299 13.6978 32.6744 13.2941C32.5108 13.514 31.7733 13.1239 32.081 13.6507ZM45.8464 2.49557C46.5777 2.44337 45.6784 2.06653 46.2023 1.90292C46.4553 1.84741 46.4284 2.07278 46.4394 2.25844C46.9883 1.59704 48.6354 1.69447 49.1692 1.66542C48.9229 1.93785 48.5111 2.11432 48.1008 1.90292C48.7321 2.69557 50.7372 1.79888 52.1361 1.90292C52.1031 2.14704 51.6097 1.93087 51.6608 2.25844C52.2659 2.34594 52.4733 1.96469 52.4913 1.78417C53.3236 1.91726 54.4722 1.38087 54.3902 1.90292C55.5391 1.7952 56.1225 0.884174 56.7637 1.66542C57.1781 1.66359 57.4758 0.936748 57.4751 1.54667C57.8586 1.65256 57.6424 1.15991 57.8321 1.07241C58.2104 0.969836 58.199 1.25881 58.4244 1.30917C58.6012 1.25807 58.3784 1.15734 58.4244 0.953659C58.8156 0.958439 59.2645 0.904762 59.2549 1.30917C60.3277 0.8316 62.4494 0.795203 63.6468 0.834909C62.8064 1.18123 61.5648 1.12645 60.5608 1.30917C62.7828 1.29226 65.1339 1.13969 67.3244 0.834909C69.4292 0.541527 72.7751 0.959174 74.2071 0.360277C74.4582 0.351821 74.9619 0.578659 75.2751 0.122409C75.3207 0.735277 75.6578 0.318365 75.8689 0.715424C76.0446 0.664321 75.8218 0.564321 75.8689 0.360277C76.3567 0.516527 76.6858 0.381601 77.2928 0.478292C77.0505 0.0143212 76.5328 0.393365 75.8689 0.240792C76.6858 -0.171341 77.6082 0.145571 79.0722 0.00439453C78.7512 0.340424 78.5358 0.0448359 78.1229 0.240792C79.5725 0.783071 81.2218 0.196306 82.2762 0.597409C81.0505 1.3805 79.4119 0.305865 77.8861 1.30917C77.949 1.40439 78.0104 1.50219 78.0045 1.66542C78.6442 1.20403 79.1111 1.83197 80.1406 1.54667C79.5795 2.05366 78.1648 1.7055 77.4115 2.02094C87.6163 1.73969 97.953 1.45954 107.553 1.90292C107.475 2.02351 107.279 2.02535 107.315 2.25844C104.465 2.35145 102.771 2.19631 100.432 2.49557C101.341 2.74373 102.239 2.84447 102.924 2.49557C102.902 2.59226 102.805 2.61469 102.805 2.73344C103.682 2.53601 105.081 2.39741 105.773 2.97131C107.603 2.95844 110.107 2.64006 112.181 3.20807C111.612 2.71763 112.956 3.12719 113.368 3.08895C112.982 3.25807 112.807 3.63712 112.3 3.6827C114.474 4.39814 116.791 4.35292 119.064 4.51359C119.095 4.89998 118.602 4.76506 118.589 5.1066C119.059 4.72682 119.414 4.86359 120.012 4.75035C120.01 4.86616 119.867 4.84226 119.775 4.86947C120.741 5.40182 121.748 5.17756 122.86 5.58123C120.825 5.84631 117.569 5.42351 115.741 5.93822C116.136 5.77903 115.927 5.94667 116.216 5.58123C116.176 5.18712 115.698 5.89337 115.622 5.46248C115.289 5.57903 115.794 5.77903 115.503 5.93822C114.031 5.72241 113.521 6.58491 112.3 6.41175C112.055 6.37976 112.271 5.88601 111.943 5.93822C111.688 6.11432 112.073 6.27204 111.705 6.41175C111.567 6.393 111.606 6.1952 111.588 6.0555C111.36 6.16101 110.891 6.543 110.756 6.0555C110.532 6.06873 110.674 6.44851 110.401 6.41175C109.23 6.46285 108.182 6.33233 107.078 6.41175C102.296 6.75586 97.1707 6.67939 92.3633 7.0055C80.5277 7.80734 66.4869 9.09337 54.6277 10.9213C52.8295 11.1981 51.0387 11.4496 49.2872 11.3956C49.3648 11.5162 49.56 11.518 49.5244 11.7522C49.0108 11.7423 48.7391 11.5026 48.5758 11.9893C48.4361 11.9702 48.4751 11.7728 48.4571 11.6334C48.3174 11.6526 48.3571 11.8496 48.3383 11.9893C48.01 12.0092 47.931 11.807 48.1008 11.6334C46.4703 11.918 44.4872 11.9401 42.8795 11.9893C42.7031 12.0404 42.9262 12.1408 42.8795 12.3448C42.1593 12.582 42.3067 12.1581 41.8115 12.1077C41.8663 12.875 39.3435 12.8934 38.845 13.2941C38.5799 13.2768 38.9986 12.9959 38.845 12.7015C38.2358 12.7415 38.5689 13.1073 38.3703 13.4132C36.738 13.7026 35.9516 13.8941 34.5725 14.4812C34.6277 14.1654 34.3755 13.4382 33.8608 13.7695C33.8803 13.9084 34.0773 13.8691 34.217 13.8886C33.6556 14.2184 32.8034 14.5448 32.3185 14.0066C32.1163 14.3614 31.9542 14.3809 31.6064 14.1254C31.9534 14.6867 31.195 14.4492 30.8942 14.3621C31.1383 14.725 30.3828 14.5349 29.8258 14.9559C29.4486 14.6088 30.6115 14.7981 30.538 14.3621C30.5854 14.0787 29.9979 14.4283 30.1821 14.0066C30.5181 14.1048 30.4898 13.8393 30.7755 13.8886C31.2446 13.868 30.7376 14.0702 31.013 14.2437C31.1997 14.193 31.1144 13.8706 31.4876 14.0066C31.3361 13.8459 31.1266 13.7695 31.4876 13.6507C31.3869 13.3026 31.1053 13.7217 30.8942 13.6507C31.3847 13.0559 32.3556 13.5437 32.7931 12.8202C32.9056 13.2312 33.9619 12.5492 34.8104 12.3448C36.8678 11.8504 39.6152 11.5338 41.3365 11.0397C34.9376 11.3864 28.7722 13.6371 22.9435 14.7187C22.3137 14.8353 21.8645 14.9147 21.2821 15.0742C20.4825 15.2941 19.5788 15.5588 18.7902 15.668C19.26 15.6026 17.2957 15.8048 16.5354 16.0242C17.3045 15.4684 17.6545 15.357 18.3156 15.0742C18.4424 15.0206 18.3383 15.2603 18.3156 15.3117C18.8766 14.7654 19.8137 14.5948 20.6887 14.3621C20.8086 14.0059 20.4244 14.1526 20.2141 14.1254C20.7321 13.6029 21.9255 14.436 21.9942 13.4132C23.1931 13.2033 24.9924 12.8456 26.2663 12.3448C24.1097 12.5099 21.2589 13.4364 19.7391 13.6507C19.5593 12.9908 19.0564 13.4371 18.6718 13.5316C18.6747 13.647 18.8167 13.6239 18.9089 13.6507C16.8711 13.7338 13.9394 14.8162 11.5519 15.0742C13.3339 14.418 15.088 13.9121 17.2475 13.4132C15.3064 13.3912 13.4005 14.3114 11.4332 14.4812C12.2019 14.0004 13.5328 13.854 14.7556 13.5316C11.7523 13.7919 8.34055 14.7419 5.49937 15.5489C5.1957 15.5548 5.35452 15.4614 5.38062 15.3117C4.29827 15.8 3.36151 15.943 1.93945 15.9059C2.35342 15.6467 2.92731 15.5485 3.36334 15.3117C3.39937 14.9992 3.19937 14.9224 2.88871 14.9559C4.77915 13.6287 6.28173 13.7239 8.46592 13.057C7.80231 12.3816 6.04643 13.422 5.14349 13.6507C3.54864 14.0537 1.72805 14.2162 0.159668 14.2437C0.37805 13.6459 1.86151 13.9004 1.70195 13.2941C2.00562 13.2893 1.84643 13.3831 1.8207 13.5316C1.91629 13.4695 2.01371 13.4084 2.17695 13.4132C2.53871 13.268 2.00342 12.9599 2.29533 12.8202C5.12327 12.479 7.80636 11.1908 10.7207 10.5651C9.22217 10.3996 7.46445 11.4088 6.09276 11.3956C8.97474 10.0489 12.8306 9.08859 16.6542 8.07278C16.1667 7.17829 14.799 8.83013 13.9247 8.31064C13.8122 7.88123 14.3924 8.14484 14.6369 8.07278C18.9817 6.143 23.9917 5.43528 29.2328 4.27572C31.8332 3.70145 34.5413 2.90329 37.3019 2.85219C38.006 2.47903 39.1152 2.19447 40.1501 2.25844C40.4402 1.95256 41.467 1.75954 41.9306 2.02094C42.4718 1.5577 42.8023 1.65917 43.7104 1.54667C47.6997 1.05219 50.7001 0.13785 54.3902 0.00439453C53.7005 0.746674 51.992 0.681232 50.8299 0.715424C49.8133 1.25807 47.731 1.16432 46.7957 1.66542C46.6233 1.60072 46.1825 1.80476 46.2023 1.54667C45.8917 1.67167 45.8141 2.02866 45.8464 2.49557Z" fill="#DF1A5B"/>
</svg>
