<svg width="40" height="40" viewBox="0 0 40 40" fill="none" xmlns="http://www.w3.org/2000/svg">
<path d="M18.4096 13.6648L14.6883 9.36959C14.2593 8.87461 13.4728 8.87681 12.9745 9.37618L9.91435 12.4417C9.00356 13.3535 8.74286 14.7076 9.26975 15.7932C12.4175 22.3103 17.6738 27.5736 24.1868 30.7303C25.2714 31.2572 26.6244 30.9965 27.5352 30.0846L30.6239 26.9905C31.1244 26.4901 31.1255 25.6992 30.6261 25.2702L26.3142 21.569C25.8632 21.1818 25.1625 21.2324 24.7104 21.6855L23.21 23.1881C23.1332 23.2686 23.0321 23.3216 22.9222 23.3391C22.8123 23.3566 22.6997 23.3375 22.6017 23.2849C20.1492 21.8726 18.1148 19.8357 16.7057 17.3815C16.6529 17.2833 16.6338 17.1706 16.6513 17.0605C16.6688 16.9504 16.7219 16.8491 16.8025 16.7721L18.2985 15.2751C18.7517 14.8198 18.8012 14.1158 18.4096 13.6637V13.6648Z" stroke="#181828" stroke-linecap="round" stroke-linejoin="round"/>
<circle cx="20" cy="20" r="19" stroke="#181828" stroke-width="2"/>
</svg>
