<svg width="40" height="40" viewBox="0 0 40 40" fill="none" xmlns="http://www.w3.org/2000/svg">
<path d="M28.0666 11.2C29.0391 11.2 29.9717 11.5863 30.6593 12.2739C31.347 12.9615 31.7333 13.8942 31.7333 14.8666V26.6C31.7333 27.5724 31.347 28.505 30.6593 29.1927C29.9717 29.8803 29.0391 30.2666 28.0666 30.2666H11.9333C10.9608 30.2666 10.0282 29.8803 9.34054 29.1927C8.65291 28.505 8.2666 27.5724 8.2666 26.6V14.8666C8.2666 13.8942 8.65291 12.9615 9.34054 12.2739C10.0282 11.5863 10.9608 11.2 11.9333 11.2H28.0666ZM30.2666 17.0094L20.3725 22.8321C20.2789 22.887 20.1744 22.9205 20.0663 22.9301C19.9583 22.9398 19.8495 22.9253 19.7477 22.8878L19.6274 22.8321L9.73327 17.0124V26.6C9.73327 27.1834 9.96505 27.743 10.3776 28.1556C10.7902 28.5682 11.3498 28.8 11.9333 28.8H28.0666C28.6501 28.8 29.2097 28.5682 29.6222 28.1556C30.0348 27.743 30.2666 27.1834 30.2666 26.6V17.0094ZM28.0666 12.6666H11.9333C11.3498 12.6666 10.7902 12.8984 10.3776 13.311C9.96505 13.7236 9.73327 14.2831 9.73327 14.8666V15.3096L19.9999 21.3493L30.2666 15.3066V14.8666C30.2666 14.2831 30.0348 13.7236 29.6222 13.311C29.2097 12.8984 28.6501 12.6666 28.0666 12.6666Z" fill="#181828"/>
<circle cx="20" cy="20" r="19" stroke="#181828" stroke-width="2"/>
</svg>
