<svg width="300" height="300" viewBox="0 0 300 300" fill="none" xmlns="http://www.w3.org/2000/svg">
<g opacity="0.5" clip-path="url(#clip0_649:1371)">
<path d="M297.092 26.6767C295.74 25.7054 293.979 25.5101 292.446 26.1604L30.9743 131.678L0 144.532L93.593 182.424H93.6965V182.475L118.734 269.873C119.238 271.633 120.637 272.994 122.409 273.45C124.182 273.907 126.064 273.39 127.355 272.093L179.495 218.766L249.857 246.436C252.757 247.622 256.041 247.408 258.763 245.856C261.484 244.304 263.34 241.586 263.796 238.487L299.313 32.0452C299.77 29.9674 298.884 27.8247 297.092 26.6767ZM145.474 204.932L145.578 204.57L145.733 204.622L145.474 204.932Z" fill="white"/>
<path d="M179.435 218.783L127.295 272.11C127.903 271.449 128.345 270.653 128.586 269.787L145.415 204.949L145.673 204.639L168.077 214.034L178.093 218.267L179.435 218.783Z" fill="#E6E6E6"/>
<path d="M297.433 26.9531L145.692 204.62L145.537 204.568L145.433 204.93L128.604 269.768C128.364 270.634 127.922 271.43 127.313 272.091C126.022 273.388 124.14 273.905 122.368 273.448C120.595 272.992 119.197 271.631 118.692 269.871L93.655 182.473V182.422H93.6035V182.37L297.433 26.9531Z" fill="#F2F2F2"/>
<path d="M123.5 274C124.833 280.667 130.9 295.2 144.5 300" stroke="#E7E7E7" stroke-width="2" stroke-dasharray="8 8"/>
</g>
<defs>
<clipPath id="clip0_649:1371">
<rect width="300" height="300" fill="white"/>
</clipPath>
</defs>
</svg>
